<?xml version="1.0" encoding="iso-8859-1"?>
<!-- Generator: Adobe Illustrator 19.0.0, SVG Export Plug-In . SVG Version: 6.00 Build 0)  -->
<svg version="1.1" id="Layer_1" xmlns="http://www.w3.org/2000/svg" xmlns:xlink="http://www.w3.org/1999/xlink" x="0px" y="0px"
	 viewBox="0 0 512 512" style="enable-background:new 0 0 512 512;" xml:space="preserve">
<g>
	<g>
		<path d="M501.333,213.333h-14.72c-17.6-95.04-92.907-170.347-187.947-187.947v-14.72C298.667,4.8,293.867,0,288,0h-64
			c-5.867,0-10.667,4.8-10.667,10.667v14.72c-95.04,17.6-170.347,92.907-187.947,187.947h-14.72C4.8,213.333,0,218.133,0,224v64
			c0,5.867,4.8,10.667,10.667,10.667h14.72c17.6,95.04,92.907,170.453,187.947,187.947v14.72c0,5.867,4.8,10.667,10.667,10.667h64
			c5.867,0,10.667-4.8,10.667-10.667v-14.72c94.933-17.493,170.347-92.907,187.947-187.947h14.72c5.867,0,10.667-4.8,10.667-10.667
			v-64C512,218.133,507.2,213.333,501.333,213.333z M298.56,47.04c83.307,17.067,149.333,82.987,166.293,166.293H365.12
			c-11.947-30.4-36.053-54.507-66.56-66.56V47.04z M234.667,21.333h42.667v119.36c-14.08-2.667-28.587-2.667-42.667,0V21.333z
			 M213.333,47.04v99.733c-30.4,11.947-54.507,36.053-66.56,66.56H47.04C64,130.027,130.027,64,213.333,47.04z M21.333,277.333
			v-42.667h119.36c-2.667,14.08-2.667,28.587,0,42.667H21.333z M213.333,464.96C130.027,448,64.107,381.973,47.04,298.667h99.733
			c11.947,30.4,36.053,54.507,66.56,66.56V464.96z M277.333,490.667h-42.667v-119.36c14.08,2.667,28.587,2.667,42.667,0V490.667z
			 M256,352c-53.013,0-96-42.987-96-96c0-53.013,42.987-96,96-96c53.013,0,96,42.987,96,96C351.893,309.013,309.013,351.893,256,352
			z M298.667,464.853V365.12c30.4-11.947,54.507-36.053,66.56-66.56h99.733C447.893,381.973,381.867,447.893,298.667,464.853z
			 M490.667,277.333h-119.36c2.667-14.08,2.667-28.587,0-42.667h119.36V277.333z"/>
	</g>
</g>
<g>
</g>
<g>
</g>
<g>
</g>
<g>
</g>
<g>
</g>
<g>
</g>
<g>
</g>
<g>
</g>
<g>
</g>
<g>
</g>
<g>
</g>
<g>
</g>
<g>
</g>
<g>
</g>
<g>
</g>
</svg>
